<svg id="visual" viewBox="0 0 960 540" width="960" height="540" xmlns="http://www.w3.org/2000/svg" xmlns:xlink="http://www.w3.org/1999/xlink" version="1.1"><path d="M0 403L137 335L274 352L411 392L549 342L686 382L823 394L960 366L960 541L823 541L686 541L549 541L411 541L274 541L137 541L0 541Z" fill="#661ccc"></path><path d="M0 408L137 425L274 367L411 387L549 398L686 416L823 390L960 378L960 541L823 541L686 541L549 541L411 541L274 541L137 541L0 541Z" fill="#5e189e"></path><path d="M0 450L137 427L274 398L411 454L549 435L686 410L823 402L960 417L960 541L823 541L686 541L549 541L411 541L274 541L137 541L0 541Z" fill="#501774"></path><path d="M0 456L137 477L274 439L411 459L549 472L686 443L823 486L960 470L960 541L823 541L686 541L549 541L411 541L274 541L137 541L0 541Z" fill="#3d174e"></path><path d="M0 483L137 502L274 497L411 478L549 511L686 483L823 496L960 514L960 541L823 541L686 541L549 541L411 541L274 541L137 541L0 541Z" fill="#28152d"></path></svg>